<?xml version="1.0" encoding="UTF-8"?>
<!DOCTYPE svg PUBLIC "-//W3C//DTD SVG 1.1//EN" "http://www.w3.org/Graphics/SVG/1.1/DTD/svg11.dtd">
<svg version="1.1" xmlns="http://www.w3.org/2000/svg" xmlns:xlink="http://www.w3.org/1999/xlink" x="0" y="0" width="801" height="1139" viewBox="0, 0, 801, 1139">
  <g id="Layer_1">
    <g>
      <path d="M477.889,489.349 C483.081,481.165 488.038,472.778 491.389,463.278 C508.452,414.903 546.682,412.364 512.1,374.192 C496.924,357.438 378.533,293.868 354.522,296.34 C285.83,303.419 255.947,333.344 234.772,383.79 C216.637,441.384 150.436,478.521 100.559,515.052 C42.767,557.38 8.388,620.962 3.298,688.852 C-0.989,746.063 24.638,801.919 71.572,842.454 C123.494,887.298 179.363,821.59 239.316,807.594 C285.572,796.798 345.621,838.083 351.037,794.458 C356.174,753.09 385.506,678.333 407.143,640.61 C419.483,619.098 437.151,594.852 446.71,572.442 C452.385,559.138 453.444,541.575 457.702,527.376 C461.96,513.181 470.184,501.493 477.889,489.349" fill="#B9B5BA"/>
      <path d="M477.889,489.349 C483.081,481.165 488.038,472.778 491.389,463.278 C508.452,414.903 546.682,412.364 512.1,374.192 C496.924,357.438 378.533,293.868 354.522,296.34 C285.83,303.419 255.947,333.344 234.772,383.79 C219.311,436.982 153.301,471.653 100.559,515.052 C45.244,560.568 8.388,620.962 3.298,688.852 C-0.989,746.063 24.638,801.919 71.572,842.454 C123.494,887.298 179.363,821.59 239.316,807.594 C285.572,796.798 345.621,838.083 351.037,794.458 C356.174,753.09 385.506,678.333 407.143,640.61 C419.483,619.098 437.151,594.852 446.71,572.442 C452.385,559.138 453.444,541.575 457.702,527.376 C461.96,513.181 470.184,501.493 477.889,489.349 z" fill-opacity="0" stroke="#1A1919" stroke-width="5.669" stroke-linecap="round" stroke-linejoin="round"/>
    </g>
    <path d="M506.768,318.723 C510.971,343.649 510.194,370.059 503.87,394.536 C497.239,420.2 474.936,422.126 453.924,435.075 C437.098,445.45 420.583,447.755 400.995,449.388 C357.418,453.028 293.426,458.224 252.293,441.474 C229.971,432.384 224.707,419.22 227.725,398.95 C231.174,375.778 235.91,344.001 239.969,320.997 C244.322,296.305 232.275,287.762 245.967,263.786 C266.022,228.661 262.838,222.919 292.365,200.325 C301.623,193.247 329.572,185.204 360.639,183.254 C390.401,181.391 428.684,181.567 446.645,191.653 C475.311,207.747 488.893,232.208 490.436,253.528 C491.276,265.118 502.627,294.165 506.768,318.723" fill="#B9B5BA"/>
    <path d="M447.647,197.083 C441.749,199.973 444.657,200.028 439.301,199.985 C416.661,194.442 409.672,189.63 397.303,188.325 C385.088,187.044 354.738,191.551 346.646,192.317 C322.385,194.606 305.301,203.653 288.307,214.985 C283.607,214.653 287.91,211.137 283.254,209.587 C299.734,188.059 335.301,184.844 360.635,183.254 C383.971,181.794 421.381,180.606 442.301,193.985 C447.446,197.274 450.706,195.583 447.647,197.083" fill="#9C999E"/>
    <path d="M230.305,396.997 C234.295,380.001 237.141,338.825 238.301,323.997 C242.307,301.481 241.299,344.485 242.799,303.989 C243.404,316.762 251.73,274.114 254.303,295.981 C247.201,314.747 254.518,307.122 252.309,326.997 C249.309,353.993 244.299,377.989 230.305,396.997" fill="#9C999E"/>
    <path d="M499.309,360.325 C504.639,348.583 493.624,276.016 494.303,273.989 C509.245,291.051 512.127,375.551 507.307,384.982 C495.274,408.521 475.553,421.747 453.924,435.075 C437.098,445.45 420.583,447.755 400.991,449.388 C371.299,451.868 352.119,431.419 324.303,420.997 C300.291,411.997 315.305,416.325 269.303,418.321 C277.297,408.318 282.646,392.989 276.307,379.989 C287.301,395.989 312.506,407.454 322.811,410.989 C336.998,415.857 348.561,421.599 364.287,422.189 C390.713,423.177 414.331,421.63 436.411,406.63 C446.096,400.056 473.678,361.399 482.237,353.926 C476.905,375.254 480.606,373.59 489.698,369.922 C497.542,366.758 495.932,367.762 499.309,360.325" fill="#9C999E"/>
    <path d="M413.307,385.989 C396.323,405.388 382.657,407.599 360.301,393.997 C345.344,384.896 340.377,368.848 342.504,358.184 C370.514,368.262 392.401,350.95 418.233,340.047 C419.018,339.715 428.237,368.926 413.307,385.989" fill="#FBE7EB"/>
    <path d="M529.309,558.985 C515.663,587.298 488.77,584.583 470.499,591.782 C462.075,595.106 454.178,597.364 446.331,590.294 C429.286,574.926 460.536,503.357 469.112,487.583 C477.198,472.708 492.159,438.044 516.348,447.142 C555.659,461.97 540.522,535.724 529.309,558.985" fill="#B9B5BA"/>
    <path d="M529.309,558.985 C515.663,587.298 488.77,584.583 470.499,591.782 C462.075,595.106 454.178,597.364 446.331,590.294 C429.286,574.926 460.536,503.357 469.112,487.583 C477.198,472.708 492.159,438.044 516.348,447.142 C555.659,461.97 540.522,535.724 529.309,558.985 z" fill-opacity="0" stroke="#1A1919" stroke-width="5.669" stroke-linecap="round" stroke-linejoin="round"/>
    <path d="M335.977,716.981 C334.568,704.29 330.307,665.84 321.305,639.653 C313.287,616.337 301.559,604.676 283.977,599.653 C272.699,596.426 290.441,613.012 277.312,615.653 C275.631,634.805 287.479,643.192 287.141,662.38 C286.857,678.368 273.496,693.075 274.639,707.672 C275.355,716.864 292.277,784.309 302.641,788.993 C324.17,798.723 351.016,750.465 360.418,738.184 C375.65,718.29 385.03,716.739 362.637,692.985 C359.047,689.18 340.328,720.2 335.977,716.981" fill="#9C999E"/>
    <path d="M479.842,490.298 C480.788,487.872 481.487,485.325 481.838,482.61 C483.098,472.935 481.708,451.65 478.418,442.052 C466.889,408.419 421.325,414.021 396.674,427.474 C380.584,436.255 359.117,435.13 344.242,445.763 C328.971,456.677 328.873,468.735 318.896,481.653 C309.234,494.161 273.104,512.419 259.979,520.993 C273.307,538.325 274.652,539.657 289.311,547.653 C303.277,555.271 322.389,557.849 337.615,561.86 C353.467,566.037 364.91,573.317 379.988,579.727 C400.653,588.504 439.514,587.45 449.778,563.466 C454.495,552.442 454.245,538.9 457.702,527.376 C461.913,513.337 474.635,503.646 479.842,490.298" fill="#9C999E"/>
    <path d="M479.842,490.298 C480.788,487.872 481.487,485.325 481.838,482.61 C483.098,472.935 481.708,451.65 478.418,442.052 C466.889,408.419 421.325,414.021 396.674,427.474 C380.584,436.255 359.115,435.13 344.24,445.763 C324.752,459.696 319.496,471.618 319.568,489.396 C319.721,525.903 352.879,540.364 350.637,578.329 C349.984,589.348 338.732,601.27 337.307,607.661 C334.227,621.469 333.303,631.661 333.303,644.989 C333.303,654.161 328.309,726.309 346.307,734.981 C371.834,747.286 383.62,701.618 397.971,676.59 C410.311,655.083 437.151,594.852 446.71,572.442 C452.385,559.138 453.444,541.575 457.702,527.376 C461.913,513.337 474.635,503.646 479.842,490.298" fill="#F2F1F0"/>
    <path d="M479.842,490.298 C480.788,487.872 481.487,485.325 481.838,482.61 C483.098,472.935 481.708,451.65 478.418,442.052 C466.889,408.419 421.325,414.021 396.674,427.474 C384.174,434.294 377.67,431.81 370.764,444.833 C364.396,456.841 362.18,472.778 361.617,486.181 C360.793,505.884 362.002,518.087 343.973,532.989 C342.646,544.997 345.303,552.985 350.637,563.654 C370.645,574.325 387.979,568.99 393.313,584.997 C400.096,605.348 370.414,623.465 362.637,640.981 C357.312,652.973 362.129,692.704 351.967,699.649 C347.477,702.715 339.303,707.489 333.303,693.989 C333.303,707.317 335.977,728.981 343.973,735.661 C365.984,730.856 388.17,693.676 397.971,676.59 C410.311,655.083 437.151,594.852 446.71,572.442 C452.385,559.138 453.444,541.575 457.702,527.376 C461.913,513.337 474.635,503.646 479.842,490.298" fill="#DBDCDB"/>
    <path d="M161.168,1116.59 C250.768,982.188 381.963,665.387 391.565,633.383 C401.163,601.383 567.577,233.391 593.174,201.391 C618.768,169.387 708.379,41.379 737.174,2.984 C749.967,31.793 769.174,31.793 797.975,47.789 C740.366,102.192 663.561,217.395 637.967,255.794 C630.223,267.411 611.934,304.219 589.479,351.778 C537.717,461.4 463.827,628.122 445.967,674.989 C416.436,752.481 391.1,831.528 361.369,908.973 C343.174,956.372 324.252,1003.62 302.59,1049.56 C294.127,1067.51 285.775,1093.84 272.223,1108.55 C248.779,1134 245.35,1116.76 212.357,1113.25 C195.522,1111.46 179.408,1121.89 161.17,1119.79" fill="#F7C77E"/>
    <path d="M260.365,1132.59 C257.174,1110.2 247.574,1113.39 213.311,1109.63 C225.17,1094.19 243.596,1057.43 251.643,1043.5 C263.221,1023.43 285.029,1014.22 295.311,992.993 C317.721,946.719 331.404,906.395 346.772,857.383 C358.045,821.43 385.465,774.59 403.303,724.993 C418.36,683.137 424.19,645.364 433.301,614.989 C436.223,605.247 459.368,577.395 481.313,532.989 C486.895,521.696 481.278,491.61 487.313,478.997 C535.479,378.317 606.153,262.77 621.971,242.989 C633.26,228.876 638.088,187.821 663.573,150.192 C695.87,102.504 749.877,56.446 765.971,34.985 C778.764,63.793 769.174,31.793 797.975,47.789 C740.366,102.192 663.561,217.395 637.967,255.794 C630.223,267.411 611.934,304.219 589.479,351.778 C537.717,461.4 463.827,628.122 445.967,674.989 C416.436,752.481 391.1,831.528 361.369,908.973 C343.174,956.372 324.252,1003.62 302.59,1049.56 C294.127,1067.51 273.918,1117.88 260.365,1132.59" fill="#E5B676"/>
    <path d="M737.174,2.984 C708.379,41.379 618.768,169.387 593.174,201.391 C567.577,233.391 401.163,601.383 391.565,633.383 C381.963,665.387 250.768,982.188 161.168,1116.59 M257.174,1132.59 C327.572,1030.19 420.362,742.184 445.967,674.985 C463.827,628.122 537.717,461.4 589.479,351.778 C611.934,304.219 630.223,267.411 637.967,255.794 C663.561,217.395 740.366,102.192 797.975,47.789 M221.307,411.997 C236.801,393.489 235.701,346.864 239.969,316.989 C243.877,289.645 233.174,286.188 245.967,263.786 C266.022,228.661 258.332,231.059 285.971,206.192 C297.305,195.997 333.246,187.587 361.307,184.985 C391,182.231 427.34,184.903 445.301,194.989 C473.969,211.09 489.319,230.133 493.965,250.997 C499.104,274.059 505.036,293.18 507.307,317.981 C509.249,339.184 510.916,403.396 493.311,420.997" fill-opacity="0" stroke="#1A1919" stroke-width="5.669" stroke-linecap="round" stroke-linejoin="round"/>
    <path d="M437.305,198.997 C439.301,177.997 444.311,151.989 454.299,138.985 C467.102,124.587 476.303,121.989 489.698,122.458 C490.256,124.504 490.778,130.926 491.303,132.985 C505.311,125.997 520.309,123.985 533.313,125.997 C532.651,131.395 529.508,137.317 532.309,142.989 C544.506,141.325 556.307,144.985 561.303,154.325 C553.831,164.989 552.901,170.88 551.573,185.383 C559.053,184.235 569.708,175.786 569.708,181.114 C571.307,193.985 563.311,216.993 547.307,224.856 C551.313,229.981 558.506,228.508 563.311,229.981 C561.096,242.528 554.924,257.567 539.313,270.989 C528.131,280.598 509.301,289.993 494.303,292.993" fill="#B9B5BA"/>
    <path d="M437.305,198.997 C439.301,177.997 444.311,151.989 454.299,138.985 C467.102,124.587 476.303,121.989 489.698,122.458 C490.256,124.504 490.778,130.926 491.303,132.985 C505.311,125.997 520.309,123.985 533.313,125.997 C532.651,131.395 529.508,137.317 532.309,142.989 C544.506,141.325 556.307,144.985 561.303,154.325 C553.831,164.989 552.901,170.88 551.573,185.383 C559.053,184.235 569.708,175.786 569.708,181.114 C571.307,193.985 563.311,216.993 547.307,224.856 C551.313,229.981 558.506,228.508 563.311,229.981 C561.096,242.528 554.924,257.567 539.313,270.989 C528.131,280.598 509.301,289.993 494.303,292.993" fill-opacity="0" stroke="#1A1919" stroke-width="5.669" stroke-linecap="round" stroke-linejoin="round"/>
    <path d="M294.307,210.993 C283.646,169.403 249.576,146.458 220.301,140.993 C205.697,138.266 181.443,148.594 167.564,161.387 C169.252,162.817 184.342,172.712 185.973,174.317 C179.83,175.403 143.977,178.321 138.641,194.325 C146.408,206.754 149.311,207.997 150.506,216.321 C145.879,228.497 141.301,228.993 133.434,235.52 C138.768,247.258 156.244,254.653 159.041,258.989 C144.566,260.34 140.904,265.395 137.701,272.852 C146.236,278.184 168.213,288.215 173.309,294.325 C175.557,297.012 166.549,306.731 162.641,308.981 C182.182,335.512 230.305,331.665 255.309,327.661" fill="#B9B5BA"/>
    <path d="M294.307,210.993 C283.646,169.403 249.576,146.458 220.301,140.993 C205.697,138.266 181.443,148.594 167.564,161.387 C169.252,162.817 184.342,172.712 185.973,174.317 C179.83,175.403 143.977,178.321 138.641,194.325 C146.408,206.754 149.311,207.997 150.506,216.321 C145.879,228.497 141.301,228.993 133.434,235.52 C138.768,247.258 156.244,254.653 159.041,258.989 C144.566,260.34 140.904,265.395 137.701,272.852 C146.236,278.184 168.213,288.215 173.309,294.325 C175.557,297.012 166.549,306.731 162.641,308.981 C182.182,335.512 230.305,331.665 255.309,327.661" fill-opacity="0" stroke="#1A1919" stroke-width="5.669" stroke-linecap="round" stroke-linejoin="round"/>
    <path d="M275.307,596.051 C318.725,618.004 323.322,687.696 314.77,758.188 C331.84,715.52 355.295,706.997 376.635,728.325 C362.807,728.489 346.772,743.254 342.504,756.059 C355.439,754.274 391.565,753.919 393.706,776.321 C370.238,774.192 345.707,772.067 335.033,784.856 C364.904,778.462 392.754,790.59 389.436,805.122 C368.098,794.458 350.111,811.704 335.564,817.391 C329.168,821.387 309.971,850.184 298.775,850.989 C276.371,891.524 219.604,888.266 170.768,882.989 C111.564,876.594 43.673,834.106 26.876,785.27 C9.392,734.442 66.377,666.356 103.496,637.309 C140.67,608.223 229.551,572.915 275.307,596.051" fill="#B9B5BA"/>
    <path d="M389.166,803.786 C377.064,797.704 372.955,802.864 356.369,802.993 C364.963,799.672 364.373,790.993 361.975,784.587 C389.166,787.79 385.942,802.165 389.166,803.786" fill="#798085"/>
    <path d="M392.37,776.594 C379.041,776.063 373.635,774.696 358.77,774.985 C368.834,772.298 368.369,761.391 357.967,754.981 C376.988,751.801 393.442,769.669 392.37,776.594" fill="#798085"/>
    <path d="M376.639,728.321 C367.033,728.325 364.639,727.622 351.303,741.489 C350.248,737.09 348.365,724.59 330.072,730.508 C335.186,724.048 343.088,717.958 351.654,717.192 C356.072,716.794 378.15,728.321 376.639,728.321" fill="#798085"/>
    <path d="M114.768,702.188 C126.494,673.38 184.502,604.786 219.84,592.86 C242.326,585.27 261.605,589.122 275.307,596.051 C318.725,618.004 323.322,687.696 314.77,758.188 C331.84,715.52 355.295,706.997 376.635,728.325 C363.842,726.184 346.772,743.254 342.504,756.059 C355.439,754.274 391.565,753.919 393.706,776.321 C370.238,774.192 345.707,772.067 335.033,784.856 C364.904,778.462 392.754,790.59 389.436,805.122 C368.098,794.458 348.9,805.122 333.967,817.391 C322.334,825.532 312.643,839.262 298.775,855.254 C284.377,879.786 227.322,892.048 178.772,884.587 C123.303,876.063 45.964,855.786 13.974,761.391" fill-opacity="0" stroke="#1A1919" stroke-width="5.669" stroke-linecap="round" stroke-linejoin="round"/>
    <path d="M311.299,286.993 C303.022,289.364 298.123,272.434 309.305,271.997 C317.979,271.653 318.305,284.985 311.299,286.993" fill="#1A1919"/>
    <path d="M427.301,261.989 C437.971,258.989 438.53,276.989 429.311,276.989 C421.967,276.989 419.534,264.176 427.301,261.989" fill="#1A1919"/>
    <path d="M277.967,382.192 C302.498,411.005 346.908,423.79 377.311,426.993 C386.479,427.958 396.698,429.634 406.303,428.989 C430.303,427.38 449.17,398.72 471.575,368.856" fill-opacity="0" stroke="#1A1919" stroke-width="5.669" stroke-linecap="round" stroke-linejoin="round"/>
    <path d="M378.641,544.989 C363.543,545.966 349.205,544.083 334.408,543.384 C318.775,542.65 304.844,538.56 290.641,532.989 C277.66,527.896 255.057,524.837 247.166,512.181 C240.346,501.243 243.197,471.95 244.678,458.669 C247.631,432.185 258.883,418.513 279.973,415.661 C314.531,410.989 367.373,429.228 393.17,422.189 C412.317,416.966 477.997,389.099 495.026,378.985 C507.067,371.833 508.643,364.973 514.635,352.325 C523.778,333.028 510.854,309.653 527.028,289.387 C532.358,284.055 538.768,281.915 545.163,286.184 C540.895,305.38 545.67,328.09 554.762,339.52 C567.405,355.419 587.827,350.184 596.362,335.254 C599.42,335.497 607.624,339.52 609.155,342.727 C614.502,353.926 602.776,363.524 568.631,370.985 C586.768,366.715 593.163,362.462 604.901,357.122 C628.37,377.926 580.971,393.857 565.44,397.657 C578.768,397.181 586.768,389.122 598.506,385.919 C612.096,404.517 583.006,413.716 563.299,419.528 C553.62,422.38 547.831,426.376 547.307,426.454 C523.401,430.052 509.145,440.622 492.37,462.192 C481.174,476.591 455.567,499.513 433.166,519.786 C416.2,535.142 388.161,544.38 378.641,544.989" fill="#B9B5BA"/>
    <path d="M530.315,286.993 C536.721,281.387 545.544,285.028 545.161,286.18 C542.764,293.387 544.124,305.672 541.973,309.395 C529.17,301.391 528.055,291.989 530.315,286.993" fill="#798085"/>
    <path d="M286.637,412.985 C338.898,419.38 365.795,428.642 401.174,418.997 C420.317,413.775 477.995,389.099 495.026,378.985 C507.067,371.833 515.301,355.989 516.305,341.997 C517.217,329.286 517.721,320.735 518.301,310.989 C518.694,304.403 520.506,297.559 527.028,289.387 C532.358,284.055 538.768,281.915 545.163,286.184 C540.895,305.38 545.67,328.09 554.762,339.52 C567.405,355.419 589.44,349.118 597.973,334.184 C601.03,334.426 607.35,339.669 609.155,342.727 C614.502,351.786 601.71,363.524 567.569,370.985 C585.706,366.715 595.834,361.919 604.901,358.184 C616.221,365.087 610.356,376.883 599.038,384.321 C588.487,391.255 573.124,394.001 564.377,396.06 C579.838,392.857 588.374,390.185 600.1,384.852 C618.237,406.181 575.573,415.259 563.832,418.997 C540.795,426.325 532.309,426.993 516.305,437.989 C511.364,441.388 490.35,467.489 468.37,487.786 C450.418,504.364 436.534,519.614 421.303,528.989 C400.506,541.786 384.157,544.38 374.635,544.989 C341.57,547.118 308.252,540.728 250.639,518.318 M320.1,343.254 C344.312,378.981 425.706,373.126 434.241,327.258" fill-opacity="0" stroke="#1A1919" stroke-width="5.669" stroke-linecap="round" stroke-linejoin="round"/>
    <path d="M421.303,349.989 C410.477,377.544 363.229,380.356 345.303,357.981 C332.428,341.911 341.258,293.383 350.311,275.985 C362.447,252.7 384.442,254.981 398.309,270.989 C410.879,285.497 428.202,332.426 421.303,349.989" fill="#8B8085"/>
    <path d="M421.303,349.989 C410.477,377.544 363.229,380.356 345.303,357.981 C332.428,341.911 341.258,293.383 350.311,275.985 C362.447,252.7 384.442,254.981 398.309,270.989 C410.879,285.497 428.202,332.426 421.303,349.989 z M344.312,377.993 C351.303,388.989 367.309,401.653 382.305,401.989 C404.309,402.485 419.307,388.989 422.307,369.981" fill-opacity="0" stroke="#1A1919" stroke-width="5.669" stroke-linecap="round" stroke-linejoin="round"/>
    <path d="M375.568,353.926 C371.301,363.528 348.9,357.122 353.166,345.391 C357.666,333.028 378.629,347.051 375.568,353.926" fill="#F7CEAB"/>
    <path d="M375.568,353.926 C371.301,363.528 348.9,357.122 353.166,345.391 C357.666,333.028 378.629,347.051 375.568,353.926 z" fill-opacity="0" stroke="#1A1919" stroke-width="5.669" stroke-linecap="round" stroke-linejoin="round"/>
    <path d="M410.307,337.989 C419.307,347.997 402.77,362.59 395.309,352.989 C389.077,344.965 406.02,333.227 410.307,337.989" fill="#F7CEAB"/>
    <path d="M410.307,337.989 C419.307,347.997 402.77,362.59 395.309,352.989 C389.077,344.965 406.02,333.227 410.307,337.989 z" fill-opacity="0" stroke="#1A1919" stroke-width="5.669" stroke-linecap="round" stroke-linejoin="round"/>
    <path d="M517.311,436.318 C530.112,444.857 539.895,464.318 559.022,464.318 C569.698,464.318 577.159,455.325 566.495,442.989 C558.334,433.552 527.985,434.192 517.311,436.318" fill="#B9B5BA"/>
    <path d="M518.301,433.982 C526.157,439.224 536.098,450.985 541.442,454.189 C545.702,456.747 557.223,442.607 550.143,436.786 C541.309,431.989 535.309,432.993 518.301,433.982" fill="#798085"/>
    <path d="M515.301,434.989 C532.309,438.993 539.895,464.318 559.022,464.318 C569.698,464.318 577.159,455.325 566.495,442.989 C558.334,433.552 533.313,428.989 515.301,434.989 z" fill-opacity="0" stroke="#1A1919" stroke-width="5.669" stroke-linecap="round" stroke-linejoin="round"/>
    <path d="M241.299,169.989 C230.604,166.419 216.785,165.993 205.303,167.993 C209.334,172.762 215.082,184.778 211.303,187.985 C204.775,193.524 187.721,193.395 180.377,191.794 C190.643,214.317 177.863,226.801 162.395,228.212 C163.59,232.77 181.496,250.942 184.635,255.782 C187.832,260.715 169.098,264.083 175.035,274.993 C178.908,282.11 187.412,297.512 196.373,301.653 C205.877,306.036 236.746,305.715 246.498,301.653 C241.697,284.051 232.158,279.825 226.236,265.383 C228.412,264.762 248.314,254.485 250.504,253.891 C250.854,247.266 234.48,243.223 234.772,236.583 C239.16,235.817 257.189,233.598 261.729,234.817 C262.42,229.415 262.002,223.77 260.574,219.266 C264.146,220.395 269.272,219.309 272.92,220.344 C275.889,221.188 266.975,196.739 266.002,195.157 C260.471,186.157 251.418,173.356 241.299,169.989" fill="#F2F1F0"/>
    <path d="M241.299,169.989 C230.604,166.419 216.785,165.993 205.303,167.993 C209.334,172.762 215.082,184.778 211.303,187.985 C204.775,193.524 187.721,193.395 180.377,191.794 C190.643,214.317 177.863,226.801 162.395,228.212 C163.59,232.77 181.496,250.942 184.635,255.782 C187.832,260.715 169.098,264.083 175.035,274.993 C178.908,282.11 187.412,297.512 196.373,301.653 C205.877,306.036 236.746,305.715 246.498,301.653 C241.697,284.051 232.158,279.825 226.236,265.383 C228.412,264.762 248.314,254.485 250.504,253.891 C250.854,247.266 234.48,243.223 234.772,236.583 C239.16,235.817 257.189,233.598 261.729,234.817 C262.42,229.415 262.002,223.77 260.574,219.266 C264.146,220.395 269.272,219.309 272.92,220.344 C275.889,221.188 266.975,196.739 266.002,195.157 C260.471,186.157 251.418,173.356 241.299,169.989" fill="#F2F1F0"/>
    <path d="M533.971,228.59 C540.43,236.989 533.149,248.317 528.305,254.989 C520.784,265.348 510.305,268.997 498.307,269.985 C492.381,258.395 503.301,249.989 506.301,230.989 C501.409,234.661 481.911,234.919 480.307,229.981 C479.112,226.309 485.788,210.528 483.307,209.989 C481.719,209.641 471.481,218.723 469.313,216.993 C465.506,213.958 462.674,200.645 463.313,196.985 C460.143,199.239 460.987,204.473 457.315,203.989 C452.42,187.794 456.872,163.587 472.313,151.989 C481.911,167.997 488.745,145.157 496.311,146.993 C499.088,147.665 504.596,163.598 508.311,163.989 C515.358,164.723 526.981,160.309 533.971,161.387 C532.905,174.176 524.372,186.454 543.569,194.989 C541.717,202.364 528.725,226.45 533.971,228.59" fill="#F2F1F0"/>
    <path d="M509.963,449.388 C523.827,455.794 535.67,489.095 554.754,487.786 C574.729,486.411 572.893,475.591 562.225,463.255 C554.067,453.818 525.956,446.192 509.963,449.388" fill="#B9B5BA"/>
    <path d="M509.963,449.388 C519.249,453.681 527.124,476.095 535.567,477.29 C545.53,478.7 553.973,466.189 543.569,454.189 C538.77,450.192 519.409,447.501 509.963,449.388" fill="#798085"/>
    <path d="M509.963,449.388 C523.827,455.794 535.965,484.204 554.754,487.786 C571.575,490.989 575.573,474.192 562.225,463.255 C552.577,455.345 525.956,446.192 509.963,449.388 z" fill-opacity="0" stroke="#1A1919" stroke-width="5.669" stroke-linecap="round" stroke-linejoin="round"/>
    <path d="M508.897,472.853 C518.497,478.185 522.764,496.318 538.76,504.857 C556.424,514.282 565.284,497.364 554.616,485.028 C546.458,475.591 517.434,467.521 508.897,472.853" fill="#B9B5BA"/>
    <path d="M538.77,479.794 C536.37,474.982 526.77,470.989 508.901,472.853 C512.502,470.603 522.827,494.868 528.366,495.79 C537.846,497.368 540.084,486.72 538.77,479.794" fill="#798085"/>
    <path d="M508.897,472.853 C518.497,478.185 522.764,496.318 538.76,504.857 C556.424,514.282 565.284,497.364 554.616,485.028 C546.458,475.591 520.374,469.392 508.897,472.853 z M315.814,748.497 C313.309,766.497 310.512,779.59 307.309,793.989" fill-opacity="0" stroke="#1A1919" stroke-width="5.669" stroke-linecap="round" stroke-linejoin="round"/>
  </g>
</svg>
