<?xml version="1.0" encoding="UTF-8" standalone="no"?>
<svg
   xmlns:dc="http://purl.org/dc/elements/1.1/"
   xmlns:cc="http://creativecommons.org/ns#"
   xmlns:rdf="http://www.w3.org/1999/02/22-rdf-syntax-ns#"
   xmlns:svg="http://www.w3.org/2000/svg"
   xmlns="http://www.w3.org/2000/svg"
   xmlns:xlink="http://www.w3.org/1999/xlink"
   xmlns:sodipodi="http://sodipodi.sourceforge.net/DTD/sodipodi-0.dtd"
   xmlns:inkscape="http://www.inkscape.org/namespaces/inkscape"
   width="584.28571"
   height="562.5"
   id="svg2"
   version="1.1"
   inkscape:version="0.48.4 r9939"
   sodipodi:docname="logview.svg">
  <defs
     id="defs4">
    <linearGradient
       inkscape:collect="always"
       id="linearGradient3931">
      <stop
         style="stop-color:#000000;stop-opacity:1;"
         offset="0"
         id="stop3933" />
      <stop
         style="stop-color:#000000;stop-opacity:0;"
         offset="1"
         id="stop3935" />
    </linearGradient>
    <linearGradient
       inkscape:collect="always"
       id="linearGradient3881">
      <stop
         style="stop-color:#a05a2c;stop-opacity:1;"
         offset="0"
         id="stop3883" />
      <stop
         style="stop-color:#a05a2c;stop-opacity:0;"
         offset="1"
         id="stop3885" />
    </linearGradient>
    <linearGradient
       inkscape:collect="always"
       xlink:href="#linearGradient3881"
       id="linearGradient3887"
       x1="364.28571"
       y1="603.79077"
       x2="357.14285"
       y2="426.64789"
       gradientUnits="userSpaceOnUse" />
    <radialGradient
       inkscape:collect="always"
       xlink:href="#linearGradient3931"
       id="radialGradient3937"
       cx="514.28571"
       cy="662.99603"
       fx="514.28571"
       fy="662.99603"
       r="153.92857"
       gradientTransform="matrix(1,0,0,1.2366589,0,-139.68068)"
       gradientUnits="userSpaceOnUse" />
    <radialGradient
       inkscape:collect="always"
       xlink:href="#linearGradient3931-2"
       id="radialGradient3937-8"
       cx="514.28571"
       cy="662.99603"
       fx="514.28571"
       fy="662.99603"
       r="153.92857"
       gradientTransform="matrix(1,0,0,1.2366589,0,-139.68068)"
       gradientUnits="userSpaceOnUse" />
    <linearGradient
       inkscape:collect="always"
       id="linearGradient3931-2">
      <stop
         style="stop-color:#000000;stop-opacity:1;"
         offset="0"
         id="stop3933-7" />
      <stop
         style="stop-color:#000000;stop-opacity:0;"
         offset="1"
         id="stop3935-7" />
    </linearGradient>
    <linearGradient
       inkscape:collect="always"
       xlink:href="#linearGradient3881"
       id="linearGradient3980"
       gradientUnits="userSpaceOnUse"
       x1="364.28571"
       y1="603.79077"
       x2="357.14285"
       y2="426.64789" />
  </defs>
  <sodipodi:namedview
     id="base"
     pagecolor="#ffffff"
     bordercolor="#666666"
     borderopacity="1.0"
     inkscape:pageopacity="0.0"
     inkscape:pageshadow="2"
     inkscape:zoom="0.7"
     inkscape:cx="53.21429"
     inkscape:cy="410"
     inkscape:document-units="px"
     inkscape:current-layer="g3897"
     showgrid="false"
     inkscape:window-width="1340"
     inkscape:window-height="997"
     inkscape:window-x="1049"
     inkscape:window-y="25"
     inkscape:window-maximized="0"
     fit-margin-top="0"
     fit-margin-left="0"
     fit-margin-right="0"
     fit-margin-bottom="0"
     inkscape:document-rotation="0" />
  <metadata
     id="metadata7">
    <rdf:RDF>
      <cc:Work
         rdf:about="">
        <dc:format>image/svg+xml</dc:format>
        <dc:type
           rdf:resource="http://purl.org/dc/dcmitype/StillImage" />
        <dc:title />
      </cc:Work>
    </rdf:RDF>
  </metadata>
  <g
     inkscape:label="Layer 1"
     inkscape:groupmode="layer"
     id="layer1"
     transform="translate(-98.92857,-379.86218)">
    <g
       id="g3897">
      <path
         transform="matrix(1.3326878,0,0,1.4536055,-30.653141,-219.51624)"
         d="m 505.7143,551.64789 c 0,41.42135 -18.868,75 -42.14286,75 -23.27486,0 -42.14285,-33.57865 -42.14285,-75 0,-41.42136 18.86799,-75 42.14285,-75 23.27486,0 42.14286,33.57864 42.14286,75 z"
         sodipodi:ry="75"
         sodipodi:rx="42.142857"
         sodipodi:cy="551.64789"
         sodipodi:cx="463.57144"
         id="path2985"
         style="fill:#ffff00;fill-opacity:1;fill-rule:evenodd;stroke:#000000;stroke-width:5;stroke-linecap:butt;stroke-linejoin:round;stroke-miterlimit:4;stroke-opacity:1;stroke-dasharray:none;stroke-dashoffset:0"
         sodipodi:type="arc" />
      <path
         transform="matrix(0.99337941,0,0,1.2438989,130.21196,-103.11773)"
         d="m 505.7143,551.64789 c 0,41.42135 -18.868,75 -42.14286,75 -23.27486,0 -42.14285,-33.57865 -42.14285,-75 0,-41.42136 18.86799,-75 42.14285,-75 23.27486,0 42.14286,33.57864 42.14286,75 z"
         sodipodi:ry="75"
         sodipodi:rx="42.142857"
         sodipodi:cy="551.64789"
         sodipodi:cx="463.57144"
         id="path2985-1"
         style="fill:#ffff00;fill-opacity:1;fill-rule:evenodd;stroke:#000000;stroke-width:5;stroke-linecap:butt;stroke-linejoin:round;stroke-miterlimit:4;stroke-opacity:1;stroke-dasharray:none;stroke-dashoffset:0"
         sodipodi:type="arc" />
      <path
         transform="matrix(0.73617332,0,0,1.0422307,251.58821,4.5606599)"
         d="m 505.7143,551.64789 c 0,41.42135 -18.868,75 -42.14286,75 -23.27486,0 -42.14285,-33.57865 -42.14285,-75 0,-41.42136 18.86799,-75 42.14285,-75 23.27486,0 42.14286,33.57864 42.14286,75 z"
         sodipodi:ry="75"
         sodipodi:rx="42.142857"
         sodipodi:cy="551.64789"
         sodipodi:cx="463.57144"
         id="path2985-1-7"
         style="fill:#ffff00;fill-opacity:1;fill-rule:evenodd;stroke:#000000;stroke-width:5;stroke-linecap:butt;stroke-linejoin:round;stroke-miterlimit:4;stroke-opacity:1;stroke-dasharray:none;stroke-dashoffset:0"
         sodipodi:type="arc" />
      <path
         transform="matrix(0.59465648,0,0,0.80080695,316.47709,136.313)"
         d="m 505.7143,551.64789 c 0,41.42135 -18.868,75 -42.14286,75 -23.27486,0 -42.14285,-33.57865 -42.14285,-75 0,-41.42136 18.86799,-75 42.14285,-75 23.27486,0 42.14286,33.57864 42.14286,75 z"
         sodipodi:ry="75"
         sodipodi:rx="42.142857"
         sodipodi:cy="551.64789"
         sodipodi:cx="463.57144"
         id="path2985-1-7-4"
         style="fill:#ffff00;fill-opacity:1;fill-rule:evenodd;stroke:#000000;stroke-width:5;stroke-linecap:butt;stroke-linejoin:round;stroke-miterlimit:4;stroke-opacity:1;stroke-dasharray:none;stroke-dashoffset:0"
         sodipodi:type="arc" />
      <path
         transform="matrix(0.37145336,0,0,0.55157853,423.51911,274.51362)"
         d="m 505.7143,551.64789 c 0,41.42135 -18.868,75 -42.14286,75 -23.27486,0 -42.14285,-33.57865 -42.14285,-75 0,-41.42136 18.86799,-75 42.14285,-75 23.27486,0 42.14286,33.57864 42.14286,75 z"
         sodipodi:ry="75"
         sodipodi:rx="42.142857"
         sodipodi:cy="551.64789"
         sodipodi:cx="463.57144"
         id="path2985-1-7-4-0"
         style="fill:#ffff00;fill-opacity:1;fill-rule:evenodd;stroke:#000000;stroke-width:5;stroke-linecap:butt;stroke-linejoin:round;stroke-miterlimit:4;stroke-opacity:1;stroke-dasharray:none;stroke-dashoffset:0"
         sodipodi:type="arc" />
      <path
         transform="matrix(0.14882888,0,0,0.28362764,529.57861,419.47103)"
         d="m 505.7143,551.64789 c 0,41.42135 -18.868,75 -42.14286,75 -23.27486,0 -42.14285,-33.57865 -42.14285,-75 0,-41.42136 18.86799,-75 42.14285,-75 23.27486,0 42.14286,33.57864 42.14286,75 z"
         sodipodi:ry="75"
         sodipodi:rx="42.142857"
         sodipodi:cy="551.64789"
         sodipodi:cx="463.57144"
         id="path2985-1-7-4-0-9"
         style="fill:#ffff00;fill-opacity:1;fill-rule:evenodd;stroke:#000000;stroke-width:5;stroke-linecap:butt;stroke-linejoin:round;stroke-miterlimit:4;stroke-opacity:1;stroke-dasharray:none;stroke-dashoffset:0"
         sodipodi:type="arc" />
      <path
         sodipodi:nodetypes="ccccccccc"
         inkscape:connector-curvature="0"
         id="path3845"
         d="m 591.42857,693.79075 -125.71428,-5.71428 -57.14286,10 -25.71429,7.14286 -1.42857,28.57142 -17.14286,-1.42857 -12.85714,-30 -62.85714,-10 L 160,690.93361"
         style="fill:none;stroke:#000000;stroke-width:5;stroke-linecap:butt;stroke-linejoin:miter;stroke-miterlimit:4;stroke-opacity:1;stroke-dasharray:none" />
      <path
         sodipodi:nodetypes="ccccccccc"
         inkscape:connector-curvature="0"
         id="path3845-4"
         d="m 159.99999,469.50503 125.71428,5.71428 22.85716,-18.57143 30,5.71428 -4.28572,-44.2857 34.28572,8.57143 7.14286,35.71428 15.71428,14.28572 199.99999,-4.28572"
         style="fill:none;stroke:#000000;stroke-width:5;stroke-linecap:butt;stroke-linejoin:miter;stroke-miterlimit:4;stroke-opacity:1;stroke-dasharray:none" />
      <path
         sodipodi:nodetypes="ccccc"
         inkscape:connector-curvature="0"
         id="path3865"
         d="m 164.28572,468.07647 -52.85715,50 -10,74.28572 18.57143,65.71428 47.14285,32.85714"
         style="fill:none;stroke:#000000;stroke-width:5;stroke-linecap:butt;stroke-linejoin:round;stroke-miterlimit:4;stroke-opacity:1;stroke-dasharray:none" />
      <path
         inkscape:connector-curvature="0"
         id="path3879"
         d="m 372.41131,729.78967 -5.87441,-0.42966 -6.15049,-14.57034 c -3.38275,-8.01369 -6.24472,-14.71866 -6.35994,-14.89993 -0.11514,-0.18129 -14.31114,-2.62261 -31.54654,-5.42519 l -31.33707,-5.09558 -61.5406,-0.87179 -61.5406,-0.87177 -22.60497,-15.8914 -22.60496,-15.89138 -9.10137,-31.81723 -9.10137,-31.81723 4.89408,-35.99443 4.89409,-35.99441 24.78142,-23.84653 c 23.69759,-22.80359 25.0001,-23.82055 29.78142,-23.25261 2.75,0.32665 30.50953,1.66765 61.68784,2.98 l 56.68783,2.38609 11.16932,-9.20992 11.1693,-9.20993 15.71428,3.05471 c 14.07223,2.7355 15.75299,2.81813 16.08462,0.79073 0.20368,-1.24519 -0.51166,-10.94254 -1.58965,-21.54969 -1.07798,-10.60714 -1.86013,-19.42022 -1.7381,-19.58462 0.19803,-0.26675 6.10706,1.15512 22.41562,5.3938 l 5.17248,1.34436 3.16107,16.78037 3.16108,16.78038 8.8093,8.36369 8.8093,8.3637 40.71428,-0.85203 c 22.39286,-0.46862 61.90882,-1.28284 87.81324,-1.80937 l 47.09895,-0.95732 -5.23557,4.59689 c -10.20752,8.96232 -20.80606,28.96909 -26.56769,50.15158 -4.45303,16.37142 -6.10357,30.27893 -6.10357,51.42857 0,21.14965 1.65054,35.05716 6.10357,51.42857 5.92249,21.77388 16.4891,41.41263 27.37393,50.87628 l 5.94571,5.1694 L 554,688.98087 c -7.07143,-0.47056 -30.21429,-1.57984 -51.42857,-2.4651 L 464,684.90621 434.71429,690.1537 c -27.80262,4.98173 -52.13366,10.91357 -54.50933,13.28924 -0.59875,0.59874 -1.27553,6.86839 -1.50395,13.93251 l -0.4153,12.84388 -5.8744,-0.42966 z"
         style="fill:url(#linearGradient3980);fill-opacity:1;fill-rule:evenodd;stroke:#000000;stroke-width:7.14285707;stroke-linecap:butt;stroke-linejoin:round;stroke-miterlimit:4;stroke-opacity:1;stroke-dasharray:none;stroke-dashoffset:0" />
      <path
         inkscape:connector-curvature="0"
         id="path3889"
         d="m 120.31511,549.379 128.16162,-9.55885 46.05808,13.65549 70.08838,-13.65549 68.08587,9.55885 94.11869,-8.19331 0,0"
         style="fill:none;stroke:#000000;stroke-width:4.63021183;stroke-linecap:butt;stroke-linejoin:miter;stroke-miterlimit:4;stroke-opacity:1;stroke-dasharray:none" />
      <path
         inkscape:connector-curvature="0"
         id="path3891"
         d="m 113.12516,601.11229 76.92509,12.58912 33.77199,-11.19033 63.79153,4.19637 54.41042,0 54.41044,-1.39879 52.53419,-8.39275 30.01955,25.17825 45.02933,0"
         style="fill:none;stroke:#000000;stroke-width:4.53603745;stroke-linecap:butt;stroke-linejoin:miter;stroke-miterlimit:4;stroke-opacity:1;stroke-dasharray:none" />
      <path
         inkscape:connector-curvature="0"
         id="path3893"
         d="m 141.42857,650.93361 74.28571,0 32.85715,18.57143 34.28571,-12.85714 41.42857,1.42857 37.14286,-15.71429 60,10 47.14286,14.28572 25.71428,-14.28572 34.28572,4.28572"
         style="fill:none;stroke:#000000;stroke-width:5;stroke-linecap:butt;stroke-linejoin:miter;stroke-miterlimit:4;stroke-opacity:1;stroke-dasharray:none" />
      <path
         inkscape:connector-curvature="0"
         id="path3895"
         d="m 151.42858,506.6479 54.28571,-11.42858 31.42857,11.42858 42.85714,-2.85715 32.85715,-8.57143 58.57143,4.28572 62.85714,-4.28572 52.85714,2.85715 38.57143,10"
         style="fill:none;stroke:#000000;stroke-width:4;stroke-linecap:butt;stroke-linejoin:miter;stroke-miterlimit:4;stroke-opacity:1;stroke-dasharray:none" />
      <path
         sodipodi:type="arc"
         style="fill:#e2e2e2;fill-opacity:0.35978836;fill-rule:evenodd;stroke:url(#radialGradient3937);stroke-width:5;stroke-linecap:butt;stroke-linejoin:round;stroke-miterlimit:4;stroke-opacity:1;stroke-dasharray:none;stroke-dashoffset:0"
         id="path3929"
         sodipodi:cx="552.85712"
         sodipodi:cy="590.2193"
         sodipodi:rx="151.42857"
         sodipodi:ry="187.85715"
         d="m 704.28569,590.2193 c 0,103.75064 -67.79688,187.85715 -151.42857,187.85715 -83.6317,0 -151.42858,-84.10651 -151.42858,-187.85715 0,-103.75064 67.79688,-187.85715 151.42858,-187.85715 83.63169,0 151.42857,84.10651 151.42857,187.85715 z"
         transform="translate(-31.428571,-15.714286)" />
      <path
         style="fill:#000000;fill-opacity:1;stroke:none"
         d="M 408.57143,696.6479 221.42857,900.93361 268.57143,942.36218 450,739.50504"
         id="path3973"
         inkscape:connector-curvature="0"
         sodipodi:nodetypes="cccc" />
      <path
         sodipodi:type="arc"
         style="fill:none;stroke:#b71525;stroke-width:15;stroke-linecap:butt;stroke-linejoin:round;stroke-miterlimit:4;stroke-opacity:1;stroke-dasharray:none;stroke-dashoffset:0"
         id="path3929-1"
         sodipodi:cx="552.85712"
         sodipodi:cy="590.2193"
         sodipodi:rx="151.42857"
         sodipodi:ry="187.85715"
         d="m 704.28569,590.2193 c 0,103.75064 -67.79688,187.85715 -151.42857,187.85715 -83.6317,0 -151.42858,-84.10651 -151.42858,-187.85715 0,-103.75064 67.79688,-187.85715 151.42858,-187.85715 83.63169,0 151.42857,84.10651 151.42857,187.85715 z"
         transform="translate(-28.571402,-14.999977)" />
    </g>
  </g>
</svg>
